<svg width="512" height="512" viewBox="0 0 512 512" fill="none" xmlns="http://www.w3.org/2000/svg">
  <rect width="512" height="512" rx="115" fill="url(#gradient)"/>
  <defs>
    <linearGradient id="gradient" x1="0" y1="0" x2="512" y2="512" gradientUnits="userSpaceOnUse">
      <stop offset="0%" stop-color="#3B82F6"/>
      <stop offset="100%" stop-color="#2563EB"/>
    </linearGradient>
  </defs>
  
  <!-- Calculator Display -->
  <rect x="80" y="80" width="352" height="100" rx="20" fill="white" fill-opacity="0.2"/>
  
  <!-- Grid of buttons -->
  <!-- Row 1 -->
  <rect x="80" y="210" width="70" height="70" rx="35" fill="white" fill-opacity="0.3"/>
  <rect x="165" y="210" width="70" height="70" rx="35" fill="white" fill-opacity="0.3"/>
  <rect x="250" y="210" width="70" height="70" rx="35" fill="white" fill-opacity="0.3"/>
  <rect x="335" y="210" width="97" height="70" rx="35" fill="white" fill-opacity="0.9"/>
  
  <!-- Row 2 -->
  <rect x="80" y="295" width="70" height="70" rx="35" fill="white" fill-opacity="0.9"/>
  <rect x="165" y="295" width="70" height="70" rx="35" fill="white" fill-opacity="0.9"/>
  <rect x="250" y="295" width="70" height="70" rx="35" fill="white" fill-opacity="0.9"/>
  <rect x="335" y="295" width="97" height="70" rx="35" fill="white" fill-opacity="0.9"/>
  
  <!-- Row 3 -->
  <rect x="80" y="380" width="70" height="70" rx="35" fill="white" fill-opacity="0.9"/>
  <rect x="165" y="380" width="70" height="70" rx="35" fill="white" fill-opacity="0.9"/>
  <rect x="250" y="380" width="70" height="70" rx="35" fill="white" fill-opacity="0.9"/>
  <rect x="335" y="380" width="97" height="70" rx="35" fill="white" fill-opacity="0.9"/>
</svg>
